<svg width="48" height="34" viewBox="0 0 48 34" fill="none" xmlns="http://www.w3.org/2000/svg">
<path d="M47.1525 19.2C46.9883 19.3182 46.8015 19.4042 46.6027 19.453C46.404 19.5019 46.1971 19.5128 45.994 19.4849C45.7908 19.457 45.5954 19.391 45.4189 19.2907C45.2423 19.1903 45.0881 19.0576 44.965 18.9C44.0232 17.6847 42.7973 16.6987 41.3861 16.0213C39.9749 15.3439 38.4177 14.9941 36.8399 15C36.4255 15 36.0281 14.8419 35.7351 14.5606C35.4421 14.2793 35.2774 13.8978 35.2774 13.5C35.2774 13.1021 35.4421 12.7206 35.7351 12.4393C36.0281 12.158 36.4255 12 36.8399 12C37.7167 11.9999 38.5758 11.7638 39.3197 11.3185C40.0636 10.8732 40.6626 10.2365 41.0485 9.48079C41.4344 8.72509 41.5918 7.88062 41.5028 7.04333C41.4139 6.20604 41.0821 5.40948 40.5452 4.74414C40.0083 4.07879 39.2878 3.57132 38.4655 3.27937C37.6433 2.98743 36.7522 2.92271 35.8935 3.09256C35.0349 3.26242 34.243 3.66004 33.608 4.24026C32.9729 4.82049 32.5201 5.56006 32.3009 6.37497C32.2496 6.56579 32.1596 6.74505 32.0362 6.90251C31.9127 7.05996 31.7582 7.19253 31.5813 7.29265C31.4045 7.39276 31.2089 7.45846 31.0056 7.48599C30.8023 7.51351 30.5954 7.50234 30.3966 7.45309C30.1978 7.40385 30.0111 7.3175 29.8471 7.19897C29.6831 7.08045 29.545 6.93207 29.4407 6.76232C29.3364 6.59256 29.268 6.40475 29.2393 6.2096C29.2106 6.01445 29.2222 5.81579 29.2735 5.62497C29.5778 4.49493 30.1525 3.44865 30.952 2.56938C31.7516 1.6901 32.7538 1.0021 33.8791 0.560125C35.0044 0.118146 36.2215 -0.0656153 37.4338 0.0234631C38.646 0.112542 39.8199 0.472001 40.862 1.07324C41.904 1.67448 42.7856 2.5009 43.4364 3.48675C44.0872 4.4726 44.4894 5.59067 44.6109 6.75199C44.7324 7.91331 44.5699 9.08583 44.1363 10.1762C43.7028 11.2667 43.0101 12.2449 42.1134 13.0331C44.238 13.9162 46.085 15.3176 47.4708 17.0981C47.5939 17.2561 47.6833 17.4358 47.734 17.627C47.7846 17.8183 47.7955 18.0172 47.7659 18.2124C47.7363 18.4077 47.6669 18.5954 47.5616 18.7649C47.4564 18.9343 47.3173 19.0822 47.1525 19.2ZM36.629 30.75C36.7381 30.9207 36.8104 31.1107 36.8418 31.3087C36.8732 31.5068 36.8629 31.7088 36.8116 31.903C36.7603 32.0972 36.669 32.2795 36.5431 32.4392C36.4172 32.599 36.2593 32.7329 36.0786 32.8331C35.8979 32.9332 35.6981 32.9977 35.4911 33.0226C35.2841 33.0474 35.0739 33.0322 34.8731 32.9779C34.6723 32.9236 34.4848 32.8311 34.3218 32.7061C34.1588 32.5811 34.0235 32.426 33.9239 32.25C32.9395 30.6504 31.5378 29.3248 29.8569 28.404C28.1761 27.4831 26.2743 26.9988 24.339 26.9988C22.4037 26.9988 20.5018 27.4831 18.821 28.404C17.1402 29.3248 15.7384 30.6504 14.754 32.25C14.6563 32.4292 14.5219 32.5877 14.3588 32.7157C14.1957 32.8438 14.0072 32.9389 13.8048 32.9953C13.6025 33.0516 13.3903 33.0681 13.1811 33.0437C12.9719 33.0193 12.77 32.9546 12.5876 32.8533C12.4051 32.7521 12.2459 32.6165 12.1195 32.4546C11.993 32.2928 11.902 32.108 11.8519 31.9115C11.8017 31.7151 11.7935 31.5109 11.8277 31.3112C11.8619 31.1116 11.9378 30.9207 12.0509 30.75C13.5657 28.2513 15.8755 26.285 18.6407 25.14C17.0847 23.9963 15.9412 22.4133 15.3708 20.6134C14.8004 18.8135 14.8319 16.8873 15.4609 15.1055C16.0898 13.3238 17.2846 11.776 18.8772 10.6797C20.4698 9.58351 22.3803 8.99396 24.3399 8.99396C26.2996 8.99396 28.2101 9.58351 29.8027 10.6797C31.3953 11.776 32.5901 13.3238 33.219 15.1055C33.848 16.8873 33.8795 18.8135 33.3091 20.6134C32.7387 22.4133 31.5952 23.9963 30.0392 25.14C32.8044 26.285 35.1142 28.2513 36.629 30.75ZM24.3399 24C25.5761 24 26.7845 23.6481 27.8123 22.9888C28.8401 22.3295 29.6411 21.3924 30.1142 20.2961C30.5872 19.1997 30.711 17.9933 30.4699 16.8294C30.2287 15.6655 29.6334 14.5964 28.7594 13.7573C27.8853 12.9182 26.7716 12.3468 25.5593 12.1153C24.3469 11.8837 23.0902 12.0026 21.9482 12.4567C20.8061 12.9108 19.83 13.6799 19.1433 14.6665C18.4565 15.6532 18.0899 16.8133 18.0899 18C18.0899 19.5913 18.7484 21.1174 19.9205 22.2426C21.0926 23.3678 22.6823 24 24.3399 24ZM13.4024 13.5C13.4024 13.1021 13.2378 12.7206 12.9448 12.4393C12.6518 12.158 12.2543 12 11.8399 12C10.9632 11.9999 10.1041 11.7638 9.3602 11.3185C8.61626 10.8732 8.01733 10.2365 7.63142 9.48079C7.24551 8.72509 7.08809 7.88062 7.17705 7.04333C7.26602 6.20604 7.59779 5.40948 8.13469 4.74414C8.67159 4.07879 9.39209 3.57132 10.2144 3.27937C11.0366 2.98743 11.9277 2.92271 12.7864 3.09256C13.645 3.26242 14.4369 3.66004 15.0719 4.24026C15.707 4.82049 16.1598 5.56006 16.379 6.37497C16.4826 6.76036 16.7414 7.09046 17.0986 7.29265C17.4557 7.49484 17.8819 7.55255 18.2833 7.45309C18.6848 7.35364 19.0286 7.10516 19.2392 6.76232C19.4498 6.41948 19.51 6.01036 19.4064 5.62497C19.1021 4.49493 18.5274 3.44865 17.7279 2.56938C16.9283 1.6901 15.926 1.0021 14.8008 0.560125C13.6755 0.118146 12.4584 -0.0656153 11.2461 0.0234631C10.0339 0.112542 8.86 0.472001 7.81793 1.07324C6.77586 1.67448 5.89433 2.5009 5.2435 3.48675C4.59267 4.4726 4.1905 5.59067 4.06899 6.75199C3.94747 7.91331 4.10997 9.08583 4.54355 10.1762C4.97713 11.2667 5.66982 12.2449 6.56651 13.0331C4.44402 13.917 2.59915 15.3184 1.21495 17.0981C0.966049 17.4164 0.859039 17.8165 0.917461 18.2105C0.975883 18.6045 1.19495 18.9601 1.52647 19.199C1.85799 19.438 2.27481 19.5407 2.68523 19.4846C3.09565 19.4285 3.46605 19.2182 3.71495 18.9C4.65672 17.6847 5.88255 16.6987 7.29377 16.0213C8.70499 15.3439 10.2622 14.9941 11.8399 15C12.2543 15 12.6518 14.8419 12.9448 14.5606C13.2378 14.2793 13.4024 13.8978 13.4024 13.5Z" fill="#8E8E8E"/>
</svg>
