<svg width="45" height="42" viewBox="0 0 45 42" fill="none" xmlns="http://www.w3.org/2000/svg">
<path d="M22.67 11.625C20.8158 11.625 19.0032 12.1748 17.4615 13.205C15.9198 14.2351 14.7182 15.6993 14.0086 17.4123C13.299 19.1254 13.1134 21.0104 13.4751 22.829C13.8369 24.6475 14.7297 26.318 16.0409 27.6291C17.352 28.9402 19.0224 29.8331 20.841 30.1949C22.6596 30.5566 24.5446 30.3709 26.2576 29.6614C27.9707 28.9518 29.4349 27.7502 30.465 26.2085C31.4952 24.6668 32.045 22.8542 32.045 21C32.0424 18.5144 31.0539 16.1313 29.2963 14.3737C27.5387 12.6161 25.1556 11.6276 22.67 11.625ZM22.67 27.25C21.4339 27.25 20.2255 26.8834 19.1977 26.1967C18.1699 25.5099 17.3688 24.5338 16.8957 23.3918C16.4227 22.2497 16.2989 20.9931 16.5401 19.7807C16.7812 18.5683 17.3765 17.4547 18.2506 16.5806C19.1246 15.7065 20.2383 15.1113 21.4507 14.8701C22.6631 14.6289 23.9197 14.7527 25.0618 15.2258C26.2038 15.6988 27.1799 16.4999 27.8667 17.5277C28.5534 18.5555 28.92 19.7639 28.92 21C28.92 22.6576 28.2615 24.2473 27.0894 25.4194C25.9173 26.5915 24.3276 27.25 22.67 27.25ZM44.1426 16.9395C44.0991 16.7194 44.0087 16.5113 43.8776 16.3294C43.7465 16.1474 43.5778 15.9957 43.3829 15.8848L37.5567 12.5645L37.5333 5.99805C37.5326 5.7719 37.4828 5.54861 37.3873 5.34359C37.2919 5.13856 37.1531 4.9567 36.9805 4.81055C34.8671 3.02285 32.4334 1.65287 29.8087 0.773441C29.602 0.70348 29.3829 0.677589 29.1656 0.697436C28.9483 0.717283 28.7375 0.782428 28.5469 0.888675L22.67 4.17383L16.7872 0.882816C16.5965 0.775971 16.3854 0.710333 16.1678 0.690147C15.9501 0.669962 15.7306 0.695676 15.5235 0.765628C12.9004 1.6507 10.4693 3.02599 8.35944 4.81836C8.18711 4.96429 8.04846 5.14585 7.95304 5.35051C7.85762 5.55518 7.8077 5.77809 7.80671 6.00391L7.77741 12.5762L1.95124 15.8965C1.75632 16.0075 1.58758 16.1591 1.45648 16.3411C1.32538 16.5231 1.23499 16.7311 1.19147 16.9512C0.658262 19.6306 0.658262 22.3889 1.19147 25.0684C1.23499 25.2884 1.32538 25.4965 1.45648 25.6785C1.58758 25.8604 1.75632 26.0121 1.95124 26.123L7.77741 29.4434L7.80085 36.0117C7.80156 36.2379 7.85134 36.4612 7.94677 36.6662C8.04221 36.8712 8.181 37.0531 8.35358 37.1992C10.467 38.9869 12.9008 40.3569 15.5255 41.2363C15.7322 41.3063 15.9512 41.3322 16.1685 41.3123C16.3858 41.2925 16.5966 41.2273 16.7872 41.1211L22.67 37.8262L28.5528 41.1172C28.7856 41.2469 29.048 41.3142 29.3145 41.3125C29.4852 41.3124 29.6547 41.2847 29.8165 41.2305C32.4389 40.3458 34.8699 38.9719 36.9805 37.1816C37.1529 37.0357 37.2915 36.8542 37.3869 36.6495C37.4824 36.4448 37.5323 36.2219 37.5333 35.9961L37.5626 29.4238L43.3887 26.1035C43.5837 25.9926 43.7524 25.8409 43.8835 25.6589C44.0146 25.4769 44.105 25.2689 44.1485 25.0488C44.6787 22.3715 44.6768 19.616 44.1426 16.9395ZM41.213 23.7578L35.6329 26.9316C35.3884 27.0707 35.186 27.2731 35.0469 27.5176C34.9337 27.7129 34.8145 27.9199 34.6934 28.1152C34.5384 28.3615 34.4558 28.6465 34.4551 28.9375L34.4258 35.2363C32.926 36.4142 31.255 37.356 29.4708 38.0293L23.8419 34.8926C23.6082 34.7633 23.3453 34.696 23.0782 34.6973H23.0411C22.8048 34.6973 22.5665 34.6973 22.3301 34.6973C22.0506 34.6905 21.7743 34.7579 21.5294 34.8926L15.8966 38.0371C14.1085 37.369 12.4329 36.4318 10.9278 35.2578L10.9063 28.9688C10.9054 28.6772 10.8228 28.3917 10.668 28.1445C10.5469 27.9492 10.4278 27.7539 10.3165 27.5469C10.1784 27.2986 9.97602 27.0921 9.73054 26.9492L4.1446 23.7676C3.85553 21.9391 3.85553 20.0765 4.1446 18.2481L9.71491 15.0684C9.9594 14.9293 10.1618 14.7269 10.3008 14.4824C10.4141 14.2871 10.5333 14.0801 10.6544 13.8848C10.8094 13.6385 10.8919 13.3535 10.8926 13.0625L10.9219 6.76367C12.4218 5.58584 14.0928 4.64399 15.877 3.97071L21.4981 7.10742C21.7427 7.24303 22.0193 7.31048 22.2989 7.30274C22.5352 7.30274 22.7735 7.30274 23.0098 7.30274C23.2894 7.31048 23.566 7.24303 23.8106 7.10742L29.4434 3.96289C31.2315 4.63101 32.9071 5.56824 34.4122 6.74219L34.4337 13.0313C34.4346 13.3228 34.5172 13.6083 34.6719 13.8555C34.793 14.0508 34.9122 14.2461 35.0235 14.4531C35.1615 14.7014 35.364 14.9079 35.6094 15.0508L41.1954 18.2324C41.4883 20.0623 41.4916 21.9269 41.2051 23.7578H41.213Z" fill="#8E8E8E"/>
</svg>
