<svg width="38" height="43" viewBox="0 0 38 43" fill="none" xmlns="http://www.w3.org/2000/svg">
<path d="M23.6975 41C23.6975 41.3978 23.5329 41.7794 23.2399 42.0607C22.9469 42.342 22.5494 42.5 22.135 42.5H15.885C15.4706 42.5 15.0732 42.342 14.7802 42.0607C14.4872 41.7794 14.3225 41.3978 14.3225 41C14.3225 40.6022 14.4872 40.2207 14.7802 39.9394C15.0732 39.6581 15.4706 39.5 15.885 39.5H22.135C22.5494 39.5 22.9469 39.6581 23.2399 39.9394C23.5329 40.2207 23.6975 40.6022 23.6975 41ZM19.01 20C19.4736 20 19.9267 19.8681 20.3122 19.6208C20.6976 19.3736 20.998 19.0222 21.1754 18.6111C21.3528 18.1999 21.3992 17.7475 21.3088 17.3111C21.2183 16.8746 20.9951 16.4737 20.6673 16.159C20.3395 15.8444 19.9219 15.6301 19.4673 15.5433C19.0126 15.4564 18.5414 15.501 18.1131 15.6713C17.6849 15.8416 17.3188 16.13 17.0613 16.5C16.8037 16.87 16.6663 17.305 16.6663 17.75C16.6663 18.3468 16.9132 18.9191 17.3528 19.341C17.7923 19.763 18.3884 20 19.01 20ZM37.6858 28.2181L35.2718 38.6488C35.1572 39.1441 34.9137 39.6034 34.564 39.9838C34.2142 40.3643 33.7697 40.6533 33.272 40.8239C32.7743 40.9946 32.2396 41.0412 31.7179 40.9596C31.1963 40.8779 30.7048 40.6705 30.2893 40.3569L24.969 36.5H13.055L7.73074 40.3569C7.31529 40.6705 6.82376 40.8779 6.30213 40.9596C5.78051 41.0412 5.24582 40.9946 4.74809 40.8239C4.25035 40.6533 3.80583 40.3643 3.4561 39.9838C3.10637 39.6034 2.86285 39.1441 2.74832 38.6488L0.334257 28.2181C0.231857 27.7705 0.237031 27.3064 0.349386 26.861C0.461741 26.4156 0.678325 26.0006 0.982694 25.6475L6.56082 19.2238C6.74804 16.863 7.31259 14.544 8.23465 12.3481C10.7542 6.28439 15.2659 2.48002 17.096 1.12627C17.6438 0.718801 18.3171 0.497681 19.01 0.497681C19.703 0.497681 20.3763 0.718801 20.9241 1.12627C22.7483 2.48002 27.2659 6.28439 29.7854 12.3481C30.7075 14.544 31.272 16.863 31.4593 19.2238L37.0374 25.6475C37.3418 26.0006 37.5583 26.4156 37.6707 26.861C37.7831 27.3064 37.7882 27.7705 37.6858 28.2181ZM13.43 33.5H24.5901C28.7151 26.4613 29.4866 19.7225 26.8831 13.46C24.5862 7.93252 20.2776 4.43752 19.01 3.50002C17.7386 4.43752 13.43 7.93252 11.1331 13.46C8.53348 19.7225 9.30496 26.4613 13.43 33.5ZM10.5003 34.5969C8.39741 30.9281 7.12137 27.3225 6.67215 23.78L3.38504 27.5675L5.7991 38L5.83426 37.9756L10.5003 34.5969ZM34.635 27.5675L31.3479 23.78C30.9026 27.315 29.6292 30.9206 27.5276 34.5969L32.1858 37.9719L32.221 37.9963L34.635 27.5675Z" fill="#8E8E8E"/>
</svg>
